<svg width="33" height="31" viewBox="0 0 33 31" fill="none" xmlns="http://www.w3.org/2000/svg">
<path d="M16.028 0.0999756C12.8579 0.0999756 9.7591 0.99144 7.12331 2.66164C4.48753 4.33183 2.43318 6.70575 1.22006 9.48319C0.00694466 12.2606 -0.310463 15.3168 0.30798 18.2653C0.926423 21.2139 2.45294 23.9222 4.69449 26.048C6.93604 28.1738 9.79196 29.6214 12.9011 30.2079C16.0102 30.7944 19.2329 30.4934 22.1616 29.3429C25.0903 28.1925 27.5936 26.2443 29.3548 23.7446C31.1159 21.245 32.056 18.3063 32.056 15.3C32.056 11.2687 30.3673 7.40251 27.3615 4.55195C24.3556 1.7014 20.2789 0.0999756 16.028 0.0999756ZM20.0951 9.07748H17.0297V12.355H20.035V15.623H17.0297V23.85H14.0245V15.623H11.0192V12.355H14.0245V9.07748C13.9693 8.26594 14.254 7.46652 14.8167 6.85286C15.3793 6.2392 16.1746 5.86085 17.0297 5.79998H20.035V9.07748H20.0951Z" fill="white" fill-opacity="0.8"/>
</svg>
