<svg width="33" height="31" viewBox="0 0 33 31" fill="none" xmlns="http://www.w3.org/2000/svg">
<path d="M16.2587 0.0999756C13.0887 0.0999756 9.98981 0.99144 7.35403 2.66164C4.71824 4.33183 2.6639 6.70575 1.45078 9.48319C0.237658 12.2606 -0.0797497 15.3168 0.538693 18.2653C1.15714 21.2139 2.68365 23.9222 4.9252 26.048C7.16676 28.1738 10.0227 29.6214 13.1318 30.2079C16.2409 30.7944 19.4636 30.4934 22.3923 29.3429C25.3211 28.1925 27.8243 26.2443 29.5855 23.7446C31.3466 21.245 32.2867 18.3063 32.2867 15.3C32.2867 11.2687 30.598 7.40251 27.5922 4.55195C24.5864 1.7014 20.5096 0.0999756 16.2587 0.0999756ZM24.2126 12.2695C23.9621 18.4635 20.7465 22.558 13.1933 22.4345H12.7125C12.2617 22.4345 8.15455 22.0165 7.35315 20.7055C9.14517 20.9577 10.9722 20.5719 12.4821 19.6225C11.4303 19.347 9.557 19.1855 9.22642 16.915C9.63992 17.0709 10.0921 17.1105 10.5287 17.029C9.24645 16.25 7.77388 15.585 7.85402 13.5615C8.2727 13.8648 8.79019 14.0194 9.31658 13.9985C8.54523 13.78 7.16282 10.9205 8.31483 9.45748C10.3183 11.158 12.3919 12.7635 16.1285 12.9155C16.3589 10.816 17.3706 9.40048 19.304 8.81148C20.0028 8.58663 20.7573 8.56987 21.4664 8.76346C22.1755 8.95705 22.8052 9.35171 23.2709 9.89448C24.0122 9.67598 24.7235 9.44798 25.4648 9.23898C25.4505 9.55923 25.3592 9.87215 25.1977 10.1537C25.0362 10.4353 24.8089 10.6781 24.5331 10.8635C24.7902 10.892 25.0508 10.8669 25.2966 10.7897C25.5423 10.7126 25.7673 10.5854 25.9556 10.417C25.8382 10.8336 25.6194 11.2182 25.3166 11.54C25.0139 11.8617 24.6357 12.1116 24.2126 12.2695Z" fill="white" fill-opacity="0.8"/>
</svg>
