<svg width="33" height="31" viewBox="0 0 33 31" fill="none" xmlns="http://www.w3.org/2000/svg">
<path d="M16.746 13.8655C17.0718 13.8659 17.3946 13.8078 17.6977 13.6945C17.9727 13.5973 18.2007 13.4081 18.3388 13.1625C18.4433 12.9216 18.4944 12.6629 18.489 12.4025C18.485 12.1704 18.4233 11.9426 18.3087 11.7375C18.1799 11.5063 17.9604 11.3323 17.6977 11.253C17.3758 11.1456 17.0371 11.091 16.6959 11.0915H14.6924V13.9415H15.2634C15.8544 13.894 16.3453 13.8845 16.746 13.8655Z" fill="white" fill-opacity="0.8"/>
<path d="M18.2286 16.326C17.859 16.2595 17.4825 16.234 17.1066 16.25H14.7125V19.575H17.1667C17.5831 19.5705 17.9947 19.4899 18.3789 19.3375C18.7004 19.2322 18.9731 19.0239 19.1502 18.7485C19.2969 18.4851 19.3726 18.1914 19.3706 17.8935C19.3859 17.5592 19.2952 17.2283 19.1101 16.9435C18.9019 16.6458 18.5898 16.4272 18.2286 16.326Z" fill="white" fill-opacity="0.8"/>
<path d="M16.1049 0.0999756C12.9348 0.0999756 9.836 0.99144 7.20022 2.66164C4.56443 4.33183 2.51009 6.70575 1.29697 9.48319C0.083849 12.2606 -0.233558 15.3168 0.384884 18.2653C1.00333 21.2139 2.52984 23.9222 4.7714 26.048C7.01295 28.1738 9.86886 29.6214 12.978 30.2079C16.0871 30.7944 19.3098 30.4934 22.2385 29.3429C25.1673 28.1925 27.6705 26.2443 29.4317 23.7446C31.1928 21.245 32.1329 18.3063 32.1329 15.3C32.1329 11.2687 30.4442 7.40251 27.4384 4.55195C24.4325 1.7014 20.3558 0.0999756 16.1049 0.0999756ZM22.7164 19.6035C22.4536 20.1032 22.069 20.5363 21.5945 20.867C21.0477 21.2578 20.4246 21.542 19.7613 21.703C18.9384 21.8913 18.0932 21.9776 17.2469 21.9595H11.0961V8.64998H16.5557C17.3852 8.63744 18.2149 8.67233 19.04 8.75448C19.5839 8.83429 20.1112 8.99457 20.6027 9.22948C21.1003 9.45382 21.5156 9.81452 21.7948 10.265C22.0607 10.7141 22.1956 11.2224 22.1855 11.7375C22.1974 12.347 22.0083 12.9448 21.6446 13.4475C21.2591 13.9586 20.7272 14.3542 20.1119 14.5875V14.654C20.9405 14.7858 21.7044 15.1614 22.2957 15.7275C22.8461 16.3176 23.1334 17.0874 23.0971 17.8745C23.1215 18.4717 22.9907 19.0654 22.7164 19.6035Z" fill="white" fill-opacity="0.8"/>
</svg>
